<svg width="36" height="36" viewBox="0 0 36 36" fill="none" xmlns="http://www.w3.org/2000/svg">
<path d="M17.7296 14.2041C15.7859 14.2041 14.2033 15.7859 14.2033 17.7296C14.2033 19.6741 15.7859 21.2567 17.7296 21.2567C19.6741 21.2567 21.2559 19.6741 21.2559 17.7296C21.2559 15.7859 19.6741 14.2041 17.7296 14.2041ZM17.7296 14.2041C15.7859 14.2041 14.2033 15.7859 14.2033 17.7296C14.2033 19.6741 15.7859 21.2567 17.7296 21.2567C19.6741 21.2567 21.2559 19.6741 21.2559 17.7296C21.2559 15.7859 19.6741 14.2041 17.7296 14.2041ZM23.6042 8.45475H11.8558C9.98059 8.45475 8.45475 9.98059 8.45475 11.8558V23.6042C8.45475 25.4794 9.98059 27.0053 11.8558 27.0053H23.6042C25.4794 27.0053 27.0053 25.4794 27.0053 23.6042V11.8558C27.0053 9.98059 25.4794 8.45475 23.6042 8.45475ZM17.7296 23.8369C14.3628 23.8369 11.6231 21.0972 11.6231 17.7296C11.6231 14.3628 14.3628 11.6231 17.7296 11.6231C21.0972 11.6231 23.8369 14.3628 23.8369 17.7296C23.8369 21.0972 21.0972 23.8369 17.7296 23.8369ZM24.0329 12.886C23.2362 12.886 22.588 12.2378 22.588 11.4411C22.588 10.6443 23.2362 9.99615 24.0329 9.99615C24.8297 9.99615 25.4779 10.6443 25.4779 11.4411C25.4779 12.2378 24.8297 12.886 24.0329 12.886ZM17.7296 14.2041C15.7859 14.2041 14.2033 15.7859 14.2033 17.7296C14.2033 19.6741 15.7859 21.2567 17.7296 21.2567C19.6741 21.2567 21.2559 19.6741 21.2559 17.7296C21.2559 15.7859 19.6741 14.2041 17.7296 14.2041ZM23.6042 8.45475H11.8558C9.98059 8.45475 8.45475 9.98059 8.45475 11.8558V23.6042C8.45475 25.4794 9.98059 27.0053 11.8558 27.0053H23.6042C25.4794 27.0053 27.0053 25.4794 27.0053 23.6042V11.8558C27.0053 9.98059 25.4794 8.45475 23.6042 8.45475ZM17.7296 23.8369C14.3628 23.8369 11.6231 21.0972 11.6231 17.7296C11.6231 14.3628 14.3628 11.6231 17.7296 11.6231C21.0972 11.6231 23.8369 14.3628 23.8369 17.7296C23.8369 21.0972 21.0972 23.8369 17.7296 23.8369ZM24.0329 12.886C23.2362 12.886 22.588 12.2378 22.588 11.4411C22.588 10.6443 23.2362 9.99615 24.0329 9.99615C24.8297 9.99615 25.4779 10.6443 25.4779 11.4411C25.4779 12.2378 24.8297 12.886 24.0329 12.886ZM17.7296 14.2041C15.7859 14.2041 14.2033 15.7859 14.2033 17.7296C14.2033 19.6741 15.7859 21.2567 17.7296 21.2567C19.6741 21.2567 21.2559 19.6741 21.2559 17.7296C21.2559 15.7859 19.6741 14.2041 17.7296 14.2041ZM0 0V35.46H35.46V0H0ZM29.5854 23.6042C29.5854 26.9025 26.9025 29.5854 23.6042 29.5854H11.8558C8.55746 29.5854 5.8746 26.9025 5.8746 23.6042V11.8558C5.8746 8.55746 8.55746 5.8746 11.8558 5.8746H23.6042C26.9025 5.8746 29.5854 8.55746 29.5854 11.8558V23.6042ZM23.6042 8.45475H11.8558C9.98059 8.45475 8.45475 9.98059 8.45475 11.8558V23.6042C8.45475 25.4794 9.98059 27.0053 11.8558 27.0053H23.6042C25.4794 27.0053 27.0053 25.4794 27.0053 23.6042V11.8558C27.0053 9.98059 25.4794 8.45475 23.6042 8.45475ZM17.7296 23.8369C14.3628 23.8369 11.6231 21.0972 11.6231 17.7296C11.6231 14.3628 14.3628 11.6231 17.7296 11.6231C21.0972 11.6231 23.8369 14.3628 23.8369 17.7296C23.8369 21.0972 21.0972 23.8369 17.7296 23.8369ZM24.0329 12.886C23.2362 12.886 22.588 12.2378 22.588 11.4411C22.588 10.6443 23.2362 9.99615 24.0329 9.99615C24.8297 9.99615 25.4779 10.6443 25.4779 11.4411C25.4779 12.2378 24.8297 12.886 24.0329 12.886ZM17.7296 14.2041C15.7859 14.2041 14.2033 15.7859 14.2033 17.7296C14.2033 19.6741 15.7859 21.2567 17.7296 21.2567C19.6741 21.2567 21.2559 19.6741 21.2559 17.7296C21.2559 15.7859 19.6741 14.2041 17.7296 14.2041ZM17.7296 14.2041C15.7859 14.2041 14.2033 15.7859 14.2033 17.7296C14.2033 19.6741 15.7859 21.2567 17.7296 21.2567C19.6741 21.2567 21.2559 19.6741 21.2559 17.7296C21.2559 15.7859 19.6741 14.2041 17.7296 14.2041ZM17.7296 14.2041C15.7859 14.2041 14.2033 15.7859 14.2033 17.7296C14.2033 19.6741 15.7859 21.2567 17.7296 21.2567C19.6741 21.2567 21.2559 19.6741 21.2559 17.7296C21.2559 15.7859 19.6741 14.2041 17.7296 14.2041ZM23.6042 8.45475H11.8558C9.98059 8.45475 8.45475 9.98059 8.45475 11.8558V23.6042C8.45475 25.4794 9.98059 27.0053 11.8558 27.0053H23.6042C25.4794 27.0053 27.0053 25.4794 27.0053 23.6042V11.8558C27.0053 9.98059 25.4794 8.45475 23.6042 8.45475ZM17.7296 23.8369C14.3628 23.8369 11.6231 21.0972 11.6231 17.7296C11.6231 14.3628 14.3628 11.6231 17.7296 11.6231C21.0972 11.6231 23.8369 14.3628 23.8369 17.7296C23.8369 21.0972 21.0972 23.8369 17.7296 23.8369ZM24.0329 12.886C23.2362 12.886 22.588 12.2378 22.588 11.4411C22.588 10.6443 23.2362 9.99615 24.0329 9.99615C24.8297 9.99615 25.4779 10.6443 25.4779 11.4411C25.4779 12.2378 24.8297 12.886 24.0329 12.886ZM17.7296 14.2041C15.7859 14.2041 14.2033 15.7859 14.2033 17.7296C14.2033 19.6741 15.7859 21.2567 17.7296 21.2567C19.6741 21.2567 21.2559 19.6741 21.2559 17.7296C21.2559 15.7859 19.6741 14.2041 17.7296 14.2041ZM17.7296 14.2041C15.7859 14.2041 14.2033 15.7859 14.2033 17.7296C14.2033 19.6741 15.7859 21.2567 17.7296 21.2567C19.6741 21.2567 21.2559 19.6741 21.2559 17.7296C21.2559 15.7859 19.6741 14.2041 17.7296 14.2041ZM17.7296 14.2041C15.7859 14.2041 14.2033 15.7859 14.2033 17.7296C14.2033 19.6741 15.7859 21.2567 17.7296 21.2567C19.6741 21.2567 21.2559 19.6741 21.2559 17.7296C21.2559 15.7859 19.6741 14.2041 17.7296 14.2041ZM23.6042 8.45475H11.8558C9.98059 8.45475 8.45475 9.98059 8.45475 11.8558V23.6042C8.45475 25.4794 9.98059 27.0053 11.8558 27.0053H23.6042C25.4794 27.0053 27.0053 25.4794 27.0053 23.6042V11.8558C27.0053 9.98059 25.4794 8.45475 23.6042 8.45475ZM17.7296 23.8369C14.3628 23.8369 11.6231 21.0972 11.6231 17.7296C11.6231 14.3628 14.3628 11.6231 17.7296 11.6231C21.0972 11.6231 23.8369 14.3628 23.8369 17.7296C23.8369 21.0972 21.0972 23.8369 17.7296 23.8369ZM24.0329 12.886C23.2362 12.886 22.588 12.2378 22.588 11.4411C22.588 10.6443 23.2362 9.99615 24.0329 9.99615C24.8297 9.99615 25.4779 10.6443 25.4779 11.4411C25.4779 12.2378 24.8297 12.886 24.0329 12.886ZM17.7296 14.2041C15.7859 14.2041 14.2033 15.7859 14.2033 17.7296C14.2033 19.6741 15.7859 21.2567 17.7296 21.2567C19.6741 21.2567 21.2559 19.6741 21.2559 17.7296C21.2559 15.7859 19.6741 14.2041 17.7296 14.2041Z" fill="#FDD444"/>
</svg>
