<svg width="36" height="36" viewBox="0 0 36 36" fill="none" xmlns="http://www.w3.org/2000/svg">
<path d="M0.539978 0V35.46H36V0H0.539978ZM29.4846 21.0692L29.4776 21.0972C28.9112 23.3871 26.3575 25.8444 24.0123 26.3556L23.9859 26.361C22.0897 26.7228 20.1795 26.9033 18.27 26.9033C17.708 26.9033 17.146 26.8858 16.5843 26.8544L13.9944 29.5465C13.3533 30.2141 12.2258 29.7597 12.2258 28.8346V26.2784C9.96818 25.6337 7.60465 23.2894 7.06162 21.0972L7.0554 21.0691C6.35512 17.8712 6.35512 14.6281 7.0554 11.4302L7.06162 11.4021C7.62885 9.11222 10.1825 6.65501 12.5269 6.1438L12.5542 6.13836C16.3466 5.41473 20.1927 5.41473 23.9859 6.13836L24.0123 6.1438C26.3575 6.65501 28.9112 9.11222 29.4776 11.4021L29.4846 11.4302C30.1849 14.6282 30.1849 17.8713 29.4846 21.0692Z" fill="#FDD444"/>
</svg>
