<svg width="24" height="18" viewBox="0 0 24 18" fill="none" xmlns="http://www.w3.org/2000/svg">
<path d="M0 5.00673H5.28485V0H0V5.00673ZM1.39961 1.32596H3.88542V3.68094H1.39961V1.32596Z" fill="#002F7D"/>
<path d="M6.96436 0V5.00673H23.8836V0H6.96436ZM22.484 3.68094H8.36397V1.32596H22.484V3.68094Z" fill="#002F7D"/>
<path d="M0 11.5033H5.28485V6.49664H0V11.5033ZM1.39961 7.82242H3.88542V10.1774H1.39961V7.82242Z" fill="#002F7D"/>
<path d="M6.96436 11.5033H23.8836V6.49664H6.96436V11.5033ZM8.36397 7.82242H22.484V10.1774H8.36397V7.82242Z" fill="#002F7D"/>
<path d="M0 18H5.28485V12.9931H0V18ZM1.39961 14.319H3.88542V16.674H1.39961V14.319Z" fill="#002F7D"/>
<path d="M6.96436 18H23.8836V12.9931H6.96436V18ZM8.36397 14.319H22.484V16.674H8.36397V14.319Z" fill="#002F7D"/>
</svg>
