<svg width="14" height="13" viewBox="0 0 14 13" fill="none" xmlns="http://www.w3.org/2000/svg">
<path d="M7.77344 6.50075L13.8398 0.867649C14.0534 0.669323 14.0534 0.347777 13.8398 0.149477C13.6262 -0.0488236 13.28 -0.048849 13.0664 0.149477L6.99999 5.78258L0.933603 0.149477C0.720021 -0.048849 0.37374 -0.048849 0.160186 0.149477C-0.0533681 0.347802 -0.0533954 0.669349 0.160186 0.867649L6.22658 6.50072L0.160186 12.1338C-0.0533954 12.3322 -0.0533954 12.6537 0.160186 12.852C0.266963 12.9511 0.406936 13.0007 0.546908 13.0007C0.686881 13.0007 0.826826 12.9511 0.93363 12.852L6.99999 7.21892L13.0664 12.852C13.1732 12.9511 13.3131 13.0007 13.4531 13.0007C13.5931 13.0007 13.733 12.9511 13.8398 12.852C14.0534 12.6537 14.0534 12.3321 13.8398 12.1338L7.77344 6.50075Z" fill="#121D46"/>
</svg>
