<svg width="10" height="10" viewBox="0 0 10 10" fill="none" xmlns="http://www.w3.org/2000/svg">
<path d="M5.55246 5.00074L9.88559 1.10091C10.0381 0.963603 10.0381 0.740994 9.88559 0.603709C9.73303 0.466424 9.48569 0.466407 9.33315 0.603709L5 4.50355L0.666859 0.603709C0.514301 0.466407 0.266957 0.466407 0.114419 0.603709C-0.03812 0.741012 -0.0381396 0.963621 0.114419 1.10091L4.44755 5.00073L0.114419 8.90057C-0.0381396 9.03787 -0.0381396 9.26048 0.114419 9.39776C0.190688 9.4664 0.290668 9.50072 0.390649 9.50072C0.490629 9.50072 0.59059 9.4664 0.666879 9.39776L5 5.49794L9.33313 9.39776C9.4094 9.4664 9.50938 9.50072 9.60936 9.50072C9.70934 9.50072 9.8093 9.4664 9.88559 9.39776C10.0381 9.26046 10.0381 9.03785 9.88559 8.90057L5.55246 5.00074Z" fill="#121D46"/>
</svg>
