<svg width="22" height="22" viewBox="0 0 22 22" fill="none" xmlns="http://www.w3.org/2000/svg">
<path d="M7.30786 2.51734C10.664 -0.838788 16.1263 -0.838788 19.4825 2.51734C22.8379 5.8742 22.8379 11.3358 19.4825 14.6927C16.4937 17.6807 11.839 18.0008 8.48502 15.6676C8.41445 16.0015 8.25293 16.3202 7.9932 16.5799L3.10561 21.4675C2.39335 22.1783 1.24239 22.1783 0.533766 21.4675C-0.177765 20.756 -0.177765 19.605 0.533766 18.8957L5.42136 14.0066C5.67964 13.7491 5.99902 13.5868 6.33296 13.5162C3.9983 10.1616 4.31841 5.50752 7.30786 2.51734ZM8.85097 13.1496C11.3566 15.6552 15.4345 15.6552 17.9394 13.1496C20.4435 10.6439 20.4435 6.56681 17.9394 4.06118C15.4345 1.55626 11.3566 1.55626 8.85097 4.06118C6.34533 6.56681 6.34533 10.6439 8.85097 13.1496Z" fill="#FDD444"/>
</svg>
