<svg width="27" height="30" viewBox="0 0 27 30" fill="none" xmlns="http://www.w3.org/2000/svg">
<path d="M13.5003 0C9.03399 0 5.40033 3.63366 5.40033 8.1C5.40033 12.5663 9.03399 16.2 13.5003 16.2C17.9667 16.2 21.6003 12.5663 21.6003 8.1C21.6003 3.63366 17.9667 0 13.5003 0Z" fill="#FDD444"/>
<path d="M23.578 20.6384C21.3604 18.3867 18.4205 17.1467 15.3 17.1467H11.7C8.57952 17.1467 5.63964 18.3867 3.42204 20.6384C1.2153 22.879 0 25.8366 0 28.9667C0 29.4637 0.40296 29.8667 0.9 29.8667H26.1C26.597 29.8667 27 29.4637 27 28.9667C27 25.8366 25.7847 22.879 23.578 20.6384Z" fill="#FDD444"/>
</svg>
