<svg width="26" height="26" viewBox="0 0 26 26" fill="none" xmlns="http://www.w3.org/2000/svg">
<path d="M15.6263 23.6811C15.412 23.7346 15.1934 23.782 14.9764 23.822C14.4092 23.9274 14.0343 24.4729 14.1392 25.0406C14.191 25.3199 14.3496 25.5525 14.5649 25.7044C14.7869 25.8606 15.0694 25.9311 15.3572 25.8776C15.6156 25.8296 15.876 25.7732 16.1315 25.7094C16.6916 25.5701 17.0328 25.0027 16.893 24.4429C16.7536 23.8826 16.1868 23.5416 15.6263 23.6811Z" fill="#002F7D"/>
<path d="M23.3556 9.67161C23.4288 9.89226 23.5686 10.0724 23.7451 10.1969C24.0069 10.3812 24.3495 10.4433 24.6764 10.3352C25.2244 10.1532 25.5214 9.56223 25.3401 9.01445C25.2575 8.76474 25.1658 8.51424 25.0682 8.27034C24.8538 7.73435 24.2458 7.4734 23.7095 7.68779C23.1738 7.90208 22.9128 8.51021 23.1273 9.04637C23.2094 9.25137 23.2862 9.46179 23.3556 9.67161Z" fill="#002F7D"/>
<path d="M19.0226 22.189C18.8382 22.3107 18.6479 22.4285 18.4562 22.5389C17.956 22.8274 17.7847 23.4667 18.0731 23.9667C18.1514 24.1027 18.2557 24.2138 18.3758 24.2988C18.6983 24.5256 19.1362 24.5596 19.5007 24.3496C19.7286 24.2181 19.9553 24.0783 20.1749 23.9331C20.6563 23.615 20.7888 22.9665 20.4706 22.4849C20.1524 22.003 19.5042 21.8707 19.0226 22.189Z" fill="#002F7D"/>
<path d="M25.99 12.5906C25.9672 12.0137 25.4813 11.5647 24.9043 11.5872C24.3279 11.61 23.8786 12.0961 23.9012 12.6727C23.9099 12.8932 23.9121 13.117 23.907 13.3373C23.8989 13.699 24.0759 14.0215 24.3508 14.2154C24.5147 14.3307 24.7135 14.4005 24.929 14.4054C25.5059 14.4182 25.984 13.9607 25.9968 13.3835C26.0025 13.1203 26.0004 12.8536 25.99 12.5906Z" fill="#002F7D"/>
<path d="M23.1854 19.4392C22.7228 19.0921 22.0683 19.1863 21.7218 19.6481C21.5891 19.8249 21.4494 19.9996 21.3063 20.1678C20.9324 20.6071 20.9853 21.2669 21.4245 21.6411C21.4496 21.6623 21.4749 21.6818 21.5012 21.7002C21.9379 22.0081 22.5449 21.9373 22.898 21.5229C23.0688 21.3223 23.2354 21.1136 23.3939 20.9024C23.7405 20.4407 23.6467 19.7858 23.1854 19.4392Z" fill="#002F7D"/>
<path d="M24.7215 15.6609C24.1707 15.4882 23.5841 15.7948 23.4115 16.3456C23.3455 16.5561 23.2723 16.7675 23.1932 16.9746C23.0197 17.4304 23.186 17.932 23.5671 18.2007C23.637 18.2499 23.7141 18.2915 23.7977 18.3231C24.337 18.5289 24.9409 18.2584 25.1465 17.7189C25.2403 17.4727 25.3274 17.2211 25.4061 16.9709C25.5786 16.42 25.2722 15.8336 24.7215 15.6609Z" fill="#002F7D"/>
<path d="M11.0661 23.8315C10.1317 23.6637 9.23524 23.378 8.38521 22.9795C8.37515 22.9743 8.36615 22.9683 8.35558 22.9635C8.15527 22.8692 7.9553 22.7682 7.76147 22.6627C7.7608 22.6619 7.75957 22.6614 7.75851 22.6609C7.40288 22.4651 7.05581 22.2484 6.71862 22.0111C1.80187 18.5476 0.619686 11.7297 4.08341 6.81296C4.83658 5.74423 5.74804 4.85262 6.76417 4.14594C6.77669 4.13722 6.78921 4.12856 6.80162 4.11979C10.3823 1.65258 15.2444 1.48631 19.0465 4.02159L18.2299 5.20148C18.0029 5.52989 18.1425 5.76921 18.54 5.73344L22.0871 5.41587C22.4851 5.38011 22.723 5.03588 22.616 4.65158L21.6635 1.2196C21.5568 0.834855 21.2838 0.788802 21.0566 1.11716L20.2381 2.29984C17.4478 0.426802 14.1012 -0.287415 10.7795 0.288587C10.4449 0.346489 10.1151 0.417357 9.78972 0.499851C9.7872 0.500298 9.78519 0.500577 9.78318 0.501024C9.77061 0.504098 9.75786 0.508178 9.74562 0.511588C6.88126 1.24716 4.38214 2.91776 2.59886 5.30136C2.58383 5.31919 2.56835 5.33662 2.55415 5.35602C2.49485 5.43588 2.436 5.51759 2.37838 5.59931C2.28415 5.73322 2.19126 5.87048 2.10239 6.00775C2.09127 6.02429 2.08277 6.04112 2.07305 6.05783C0.601467 8.33819 -0.108336 10.9745 0.0133924 13.6585C0.0136718 13.6673 0.0131688 13.6762 0.0133924 13.6852C0.0251852 13.9474 0.0459762 14.2132 0.0742007 14.4749C0.0757097 14.4918 0.0794543 14.5078 0.0823047 14.5247C0.111479 14.7878 0.148087 15.0515 0.193973 15.3152C0.660319 18.0056 1.92947 20.4266 3.83124 22.3104C3.83565 22.3148 3.84023 22.3196 3.8447 22.3242C3.84627 22.3259 3.848 22.3268 3.84951 22.3285C4.36046 22.8324 4.91623 23.2985 5.51464 23.72C7.08068 24.8235 8.8245 25.5529 10.6973 25.889C11.2655 25.9911 11.8083 25.6128 11.9102 25.0449C12.0121 24.4765 11.6342 23.9333 11.0661 23.8315Z" fill="#002F7D"/>
<path d="M12.3587 4.6499C11.8913 4.6499 11.5127 5.02884 11.5127 5.49557V13.9208L19.2182 17.9041C19.3423 17.9684 19.4751 17.9986 19.6057 17.9986C19.9118 17.9986 20.2074 17.8319 20.3577 17.5411C20.572 17.1261 20.4098 16.6162 19.9948 16.4019L13.2038 12.891V5.49557C13.2037 5.02884 12.8256 4.6499 12.3587 4.6499Z" fill="#002F7D"/>
</svg>
