<svg width="20" height="22" viewBox="0 0 20 22" fill="none" xmlns="http://www.w3.org/2000/svg">
<path d="M18.8978 0H1.10243C0.272723 0 -0.215003 0.935105 0.260392 1.61554C0.269544 1.62852 -0.0213044 1.23244 7.05066 10.8586C7.2093 11.0881 7.29313 11.3567 7.29313 11.6359V20.9133C7.29313 21.8155 8.32732 22.3131 9.02859 21.7824L12.0429 19.5101C12.4589 19.2013 12.7071 18.7079 12.7071 18.1897V11.6359C12.7071 11.3567 12.7908 11.0881 12.9495 10.8586C20.016 1.23983 19.7306 1.62843 19.7398 1.61554C20.215 0.935406 19.7278 0 18.8978 0V0ZM11.9057 10.1022C11.6135 10.4999 11.418 11.0545 11.418 11.6358V18.1896C11.418 18.3019 11.3641 18.4088 11.2739 18.4756C11.1945 18.5341 11.7956 18.0823 8.58216 20.5046V11.6359C8.58216 11.0891 8.4166 10.563 8.10341 10.1147C8.09563 10.1036 8.31387 10.4008 3.67164 4.08197H16.3285L11.9057 10.1022ZM17.2755 2.7929H2.72467L1.61985 1.28903H18.3803L17.2755 2.7929Z" fill="#002F7D"/>
</svg>
