<svg width="56" height="77" viewBox="0 0 56 77" fill="none" xmlns="http://www.w3.org/2000/svg">
<path d="M28 0C12.5609 0 0 12.0068 0 26.7648C0 45.3141 28.0275 77 28.0275 77C28.0275 77 56 44.4019 56 26.7648C56 12.0068 43.4396 0 28 0ZM36.4482 34.6016C34.1187 36.8278 31.0596 37.9412 28 37.9412C24.9409 37.9412 21.8808 36.8278 19.5523 34.6016C14.8938 30.1491 14.8938 22.904 19.5523 18.451C21.808 16.2939 24.8086 15.1058 28 15.1058C31.1914 15.1058 34.1915 16.2944 36.4482 18.451C41.1067 22.904 41.1067 30.1491 36.4482 34.6016Z" fill="#FDD444"/>
</svg>
